PathFileType	4	(X/Y/Z)	Patient4_TMGait_0pt4_01_left_19.trc.trc
DataRate	CameraRate	NumFrames	NumMarkers	Units	OrigDataRate	OrigDataStartFrame	OrigNumFrames
608.695652173912	608.695652173912	6	33	mm	608.695652173912	71	       141
Frame#	Time	Sacral			L.Shoulder			Chest			R.Shoulder			Neck			R.ASIS			L.ASIS			R.Thigh.Superior			R.Thigh.Lateral			R.Thigh.Inferior			R.Patella			L.Thigh.Superior			L.Thigh.Lateral			L.Thigh.Inferior			L.Patella			L.Shank.Superior			L.Shank.Lateral			L.Shank.Inferior			R.Shank.Superior			R.Shank.Lateral			R.Shank.Inferior			R.Heel			R.Midfoot.Superior			R.Midfoot.Lateral			R.Toe			L.Heel			L.Midfoot.Lateral			L.Midfoot.Superior			L.Toe			L.Elbow			L.Wrist			R.Elbow			R.Wrist			
		X1	Y1	Z1	X2	Y2	Z2	X3	Y3	Z3	X4	Y4	Z4	X5	Y5	Z5	X6	Y6	Z6	X7	Y7	Z7	X8	Y8	Z8	X9	Y9	Z9	X10	Y10	Z10	X11	Y11	Z11	X12	Y12	Z12	X13	Y13	Z13	X14	Y14	Z14	X15	Y15	Z15	X16	Y16	Z16	X17	Y17	Z17	X18	Y18	Z18	X19	Y19	Z19	X20	Y20	Z20	X21	Y21	Z21	X22	Y22	Z22	X23	Y23	Z23	X24	Y24	Z24	X25	Y25	Z25	X26	Y26	Z26	X27	Y27	Z27	X28	Y28	Z28	X29	Y29	Z29	X30	Y30	Z30	X31	Y31	Z31	X32	Y32	Z32	X33	Y33	Z33	

71	24.095000000000	561.117553996218	1015.726246875904	474.274481839090	750.476447455623	1428.830731314600	267.365826864165	871.795789371085	1352.294593640619	411.296855863451	823.858956937475	1435.262583347837	594.934866943483	775.110247370941	1491.073176294505	421.628888527298	799.719795762386	937.026755026433	563.347880982431	753.678334376150	962.066657171118	291.902694865077	812.170501996050	729.669430644776	531.527469015406	723.377713706781	629.986920893589	598.614050262142	785.455455617466	570.647659330392	512.230115034726	775.106553301373	487.188639914607	517.653998813486	836.183477885309	789.600909566161	325.148851031537	803.930964384198	660.891874524268	244.059520728883	906.724904606832	608.007143286229	312.003050287077	937.367331659965	535.240434220447	302.564561957196	908.600138851062	458.931094707417	292.543544529403	822.514188114418	342.606249309843	237.625106972316	889.776192741650	229.209020823444	292.666786655555	744.443428510810	400.033143260214	526.281112428062	670.843565077716	298.354606074550	588.486946814658	706.736581911021	203.282687584779	522.593135101429	566.749116496550	40.397111035978	490.431099295429	737.400213916119	96.307961922397	529.992580070704	648.530259516258	35.618913363414	566.698684115439	856.702326270389	43.577111944136	560.292674994085	777.856033588228	62.723742237761	326.474268946520	852.581865196192	60.624157483959	247.308116457321	932.051516978201	129.135630202856	270.562200198771	1061.588970852929	85.111521220852	244.138158973695	631.510856176078	1100.991359773439	149.434978222863	658.608900779188	846.717022703684	85.805371685658	866.668228887166	1094.116243328003	721.214500894076	1074.717306591452	966.240155479021	639.973180966621	
72	24.096642857143	561.087495964361	1015.767696284112	474.199100571045	750.474544170560	1428.770021848466	267.228425995768	871.839345788535	1352.234588169289	411.104748639029	823.986725285161	1435.234256178316	594.752662122723	775.175756185200	1491.032729901920	421.449449984554	799.699654382646	936.965600269062	563.433753001380	753.678773223669	962.015140769479	291.824900986266	811.938642708969	729.576075076402	531.514503367926	722.992353693376	629.973772705757	598.618337888930	784.989846316294	570.562745237449	512.241156355332	774.580905219005	487.156745373074	517.681076170449	836.019707433238	789.486131913091	325.185055080833	803.812526610332	660.785207083103	244.064622599991	906.518548738676	607.859180696546	312.059993291197	937.192586006978	535.290400116093	302.749769861205	908.741408691111	458.984257570071	292.712873874237	823.272366924033	342.292528153412	237.596795834255	890.866167305640	229.189464777260	292.833772238797	743.852900143610	399.991372754668	526.274300786229	670.245476738667	298.358657950862	588.494021528467	706.107018878060	203.260195180241	522.589310794893	566.083825178583	40.395891485962	490.427882581879	736.730366511790	96.321615198772	529.991584308271	647.872714333731	35.624849356673	566.706722141086	856.032002395854	43.591162641053	560.300523158994	779.542572377616	62.271103322935	326.327987936139	854.570938821283	60.354199946419	247.440123850499	933.690074447117	129.215481809143	270.899091887572	1063.498490795694	85.652111107340	245.046615160738	631.046660260729	1101.021223792227	149.529942465178	657.758523035247	846.698295005920	85.956269273509	867.083285225802	1094.080930615435	720.855241060687	1075.092666326708	966.432110546863	639.193294114741	
73	24.098285714286	561.067265652275	1015.803803944691	474.120056182769	750.474522521930	1428.709763820250	267.085906472369	871.883828557462	1352.174207987850	410.911942215701	824.112429443034	1435.207283007353	594.568550417039	775.239292654972	1490.992369412849	421.267973980600	799.678984874317	936.903405780724	563.463510228325	753.684306612181	961.961715450494	291.746347015540	811.703750930486	729.477304861716	531.513295634998	722.609289399858	629.962781949465	598.624534291861	784.526174169366	570.477393966528	512.251991468321	774.055396511821	487.122987149843	517.706473137165	835.861580064445	789.365994136691	325.217228976441	803.689475349900	660.669686229547	244.073438108266	906.314398492645	607.702342063097	312.111512063897	937.015735629130	535.333479484402	302.931414785391	908.876044491233	459.029914467207	292.875472137468	824.012461447304	341.983204525859	237.569951071442	891.934724477847	229.168996907859	292.997528792390	743.267600841989	399.949688609293	526.268842763929	669.648172290304	298.362839595625	588.500402621326	705.478155452743	203.239480099951	522.588077185100	565.418854731306	40.394060962637	490.425466722432	736.065655156496	96.332739429056	529.987495307917	647.213417352829	35.630405204035	566.715181102851	855.362798534776	43.604940117694	560.306416053870	781.196343900968	61.829048708835	326.188034660208	856.519754976727	60.095258058066	247.574632184668	935.293205278055	129.293428761465	271.232641373724	1065.361958735200	86.183433079805	245.937225281879	630.585495660640	1101.051097540034	149.620230143720	656.921474889494	846.683341063920	86.097659158782	867.497054546071	1094.045213172030	720.495782568391	1075.462323688851	966.621536368456	638.412533975538	
74	24.099928571429	561.058321630751	1015.833432051678	474.038446656413	750.477064235209	1428.650761942950	266.936657499680	871.928972009769	1352.113451117391	410.719065963115	824.236845802167	1435.182669044319	594.382355822745	775.300805838625	1490.952143949991	421.085436523506	799.659124610981	936.845461492722	563.434676024076	753.694698773423	961.906399218084	291.667037234149	811.465721570121	729.372881776172	531.523514788073	722.228694798711	629.954520959888	598.632199930549	784.065418888945	570.392105663484	512.262445440745	773.528099082134	487.085379539448	517.729146112960	835.709575734573	789.241153932837	325.245058726432	803.561278318002	660.545875103048	244.085924800243	906.112253139251	607.537313347915	312.157901938600	936.837538974245	535.369869341980	303.108460789685	909.003157738134	459.067671632137	293.032036957918	824.734374841105	341.679119396485	237.544244505151	892.981394524562	229.147185540393	293.158349393926	742.691343529757	399.909780656311	526.267138665993	669.050764286377	298.366149714865	588.505700659597	704.850267716954	203.221160017580	522.590814944155	564.754369471690	40.391151124456	490.424689369677	735.407378041816	96.339485436880	529.979912752959	646.552834004568	35.635730028216	566.725545246484	854.695307105144	43.617508979504	560.309891888488	782.815700340006	61.397974621981	326.054103052253	858.428316074371	59.848033295706	247.711817214660	936.859653165600	129.368475093231	271.562957352286	1067.177946715885	86.704567346191	246.808784437109	630.127575034074	1101.081258193846	149.705519195034	656.098092436766	846.672471604569	86.229694940388	867.910763738453	1094.008683722628	720.137016101501	1075.826759172401	966.809294953080	637.630041717280	
75	24.101571428571	561.061575459525	1015.855611494004	473.955272976235	750.482689809014	1428.593575681524	266.779501636985	871.974486940437	1352.052336136795	410.526623639619	824.360491615890	1435.161182181781	594.193903207050	775.360290632410	1490.912035892881	420.902610341882	799.641146462476	936.796191611172	563.346472592340	753.709829581519	961.849270786370	291.586885956277	811.224949508950	729.262930144815	531.544324726796	721.850661498971	629.949167817135	598.640544903735	783.608515787178	570.307272140695	512.272385394236	772.997684117240	487.042355979288	517.748270821121	835.564325538275	789.112167401267	325.268253442010	803.427601665140	660.414259853884	244.101871037373	905.911983348247	607.364727085689	312.199397673449	936.658652763443	535.399688908159	303.280089930375	909.122031002200	459.097149134116	293.183232184874	825.437926382341	341.380747116687	237.519611617628	894.005644028562	229.123577292205	293.316579647230	742.127120988289	399.872995995051	526.270972490424	668.452512030062	298.367714709007	588.509563615004	704.223580998458	203.205638822726	522.598473220543	564.090420354777	40.386817204182	490.426140513765	734.756334619917	96.340454985412	529.968668315954	645.891193410591	35.640754108345	566.738776688735	854.029975019704	43.628176394410	560.310699332977	784.399248535160	60.978063020625	325.926175040703	860.296348851597	59.612752813229	247.851894513608	938.388281742239	129.439706719487	271.890142024658	1068.945289052018	87.214619967557	247.660138992309	629.673111993911	1101.111891866903	149.785608624288	655.288592911130	846.665836966982	86.352549658914	868.325361114527	1093.971167655077	719.779669863564	1076.186309395598	966.996009904012	636.845235245825	
76	24.103214285714	561.075445451947	1015.870142062658	473.871094015418	750.491184878766	1428.537646673809	266.615236645389	872.019976864446	1351.990975326227	410.334546474141	824.482703001899	1435.142508635330	594.003021406651	775.417950859130	1490.871723409364	420.719341627717	799.624917705078	936.756074414285	563.205865369558	753.730106002252	961.790685583232	291.505397431149	810.984108470986	729.149226773850	531.572587261213	721.474905701618	629.945103608344	598.647182384527	783.156197802924	570.222791432494	512.281870132909	772.465554312557	486.994260336967	517.764022651515	835.427149453529	788.979127572079	325.286627537206	803.289015999514	660.274975719930	244.120294044805	905.713785223209	607.184972292224	312.235957927810	936.479270053112	535.422702806544	303.446477879170	909.232726643843	459.118030105874	293.329567656765	826.122553027577	341.086891013573	237.497189643370	895.006649306632	229.097619837648	293.472804567817	741.574187834740	399.839119567105	526.279319142510	667.853343700374	298.367243002534	588.511809950882	703.598089290539	203.192345988896	522.610034301763	563.426541638170	40.381277679506	490.429281313068	734.111051116121	96.336305195505	529.954651063698	645.227647607396	35.644410246507	566.753457711011	853.366585986314	43.637355116842	560.309546324215	785.946756047227	60.568519240038	325.805545218975	862.122323536646	59.387481826702	247.995261144248	939.878501310796	129.506582767295	272.214267994491	1070.664015469307	87.712814842027	248.490368980448	629.222324504156	1101.142769608902	149.860849260812	654.492651785808	846.662856451631	86.466484969013	868.740525238522	1093.933550822475	719.423731479700	1076.540655196481	967.181218183062	636.058793821838	
